PathFileType	4	(X/Y/Z)	D:\mayra\Descargas\0003~aa~Standing.trc
DataRate	CameraRate	NumFrames	NumMarkers	Units	OrigDataRate	OrigDataStartFrame	OrigNumFrames
250.00	250.00	13	22	mm	250.00	1	2178
Frame#	Time	r.should			l.should			c7			r.asis			l.asis			sacrum			r.bar1			l.bar1			r.knee1			l.knee1			r.bar2			r.mall			l.bar2			l.mall			r.met			r.heel			l.heel			l.met			r.mallm			l.mallm			r.kneem			l.kneem			
		X1	Y1	Z1	X2	Y2	Z2	X3	Y3	Z3	X4	Y4	Z4	X5	Y5	Z5	X6	Y6	Z6	X7	Y7	Z7	X8	Y8	Z8	X9	Y9	Z9	X10	Y10	Z10	X11	Y11	Z11	X12	Y12	Z12	X13	Y13	Z13	X14	Y14	Z14	X15	Y15	Z15	X16	Y16	Z16	X17	Y17	Z17	X18	Y18	Z18	X19	Y19	Z19	X20	Y20	Z20	X21	Y21	Z21	X22	Y22	Z22	

0	0.000000	997.662365	1332.987666	361.243069	1032.611251	1325.370669	72.451293	916.713357	1354.578376	224.826559	1136.550188	872.653723	361.078680	1086.468935	873.526931	59.448667	885.347128	936.966300	234.053165	1031.633735	833.992422	433.516890	1030.773163	793.823302	26.162742	1009.199619	467.919528	387.864500	1003.001928	447.180688	96.479371	1005.630732	405.449599	383.140385	970.848680	76.298371	363.893837	981.795251	403.355271	93.884505	974.770963	70.382677	111.172758	1116.008282	42.620547	345.070779	909.124672	33.428110	318.969518	913.686454	31.461332	158.512503	1117.359638	40.835138	129.214078	980.757535	75.169608	280.269802	984.139562	74.954629	188.690454	1036.034226	450.602859	249.092072	1011.732697	448.094934	230.017677	
1	0.004000	997.651279	1332.986116	361.261845	1032.624125	1325.370193	72.473481	916.706860	1354.594946	224.835917	1136.559606	872.643352	361.106098	1086.468697	873.525381	59.454851	885.330260	936.980307	234.057158	1031.599045	833.982468	433.522224	1030.797720	793.824732	26.175370	1009.187222	467.920512	387.870222	1003.007293	447.175562	96.482761	1005.613923	405.441970	383.137137	970.837772	76.312572	363.893658	981.783986	403.359175	93.898296	974.756002	70.381686	111.173779	1116.013646	42.620182	345.058084	909.121871	33.425193	318.970114	913.697958	31.456068	158.510879	1117.353201	40.825825	129.221439	980.742395	75.182006	280.264586	984.151423	74.952006	188.692078	1035.955191	450.559348	249.126196	1011.707067	448.084414	230.020598	
2	0.008000	997.642756	1332.973480	361.279875	1032.616258	1325.375557	72.484657	916.705608	1354.604125	224.844307	1136.566401	872.644126	361.124933	1086.472511	873.527527	59.449650	885.312676	936.983168	234.054729	1031.589270	833.989024	433.529496	1030.794859	793.816388	26.185965	1009.165883	467.916459	387.873501	1003.010869	447.173834	96.486986	1005.603671	405.433863	383.138388	970.839441	76.317407	363.892347	981.775045	403.354704	93.905799	974.756956	70.384666	111.175448	1116.005421	42.617254	345.048070	909.129202	33.422261	318.965852	913.690209	31.461585	158.510566	1117.350459	40.815968	129.224569	980.733395	75.185947	280.261934	984.138012	74.951530	188.686937	1035.942554	450.551659	249.140084	1011.691093	448.080808	230.018973	
3	0.012000	997.645497	1332.958579	361.298442	1032.632351	1325.389385	72.516620	916.716516	1354.612589	224.863052	1136.554956	872.635543	361.136824	1086.447716	873.521030	59.471410	885.290146	936.989665	234.057114	1031.589508	833.983719	433.543772	1030.799389	793.808103	26.192002	1009.160042	467.913657	387.877047	1003.005981	447.166413	96.490800	1005.597591	405.433297	383.148432	970.825613	76.319315	363.894075	981.774688	403.358310	93.911089	974.762678	70.390642	111.175835	1116.002321	42.607509	345.043540	909.135878	33.424567	318.969965	913.683951	31.456847	158.516958	1117.356896	40.818118	129.229590	980.729580	75.188600	280.266106	984.138131	74.942887	188.690841	1035.917163	450.542212	249.157488	1011.687636	448.088288	230.019197	
4	0.016000	997.645378	1332.947969	361.320138	1032.661080	1325.395823	72.540686	916.737556	1354.618192	224.877894	1136.524320	872.622252	361.135244	1086.463213	873.518169	59.480403	885.298669	936.981559	234.061167	1031.567693	833.972573	433.558971	1030.801535	793.806255	26.199358	1009.160519	467.918068	387.884498	1002.987385	447.166592	96.497551	1005.599022	405.438393	383.163691	970.833480	76.304011	363.899827	981.767476	403.355449	93.915150	974.761963	70.386469	111.180350	1116.003871	42.602584	345.048994	909.150124	33.426940	318.972349	913.690090	31.450137	158.526316	1117.365360	40.823065	129.239321	980.740547	75.186193	280.270845	984.143794	74.933983	188.693583	1035.931945	450.550675	249.161676	1011.683345	448.093861	230.020463	
5	0.020000	997.636497	1332.938194	361.340046	1032.649755	1325.396776	72.546557	916.749775	1354.614973	224.900529	1136.509418	872.620761	361.140102	1086.453319	873.516440	59.487551	885.303438	936.979353	234.067291	1031.556010	833.962560	433.576614	1030.803204	793.808818	26.212463	1009.171009	467.921853	387.894511	1002.965689	447.168678	96.498556	1005.605221	405.434549	383.168250	970.842063	76.302417	363.909870	981.749177	403.354794	93.923204	974.769473	70.374578	111.186951	1116.000533	42.603709	345.054388	908.581853	33.209741	318.438709	913.694501	31.461127	158.539414	1117.373705	40.824432	129.247278	981.747627	75.336695	281.147778	984.144807	74.931830	188.696429	1035.939217	450.566649	249.154299	1011.684656	448.103219	230.028838	
6	0.024000	997.629464	1332.929015	361.363351	1032.665730	1325.390100	72.570674	916.763783	1354.615211	224.917740	1136.500239	872.613430	361.149728	1086.418390	873.500645	59.520036	885.307491	936.986864	234.066680	1031.547070	833.955348	433.588266	1030.814528	793.808222	26.220758	1009.174228	467.917770	387.903243	1002.954841	447.166622	96.500412	1005.593538	405.433565	383.173138	970.831037	76.305687	363.915056	981.738627	403.360933	93.932435	974.780560	70.375770	111.188933	1116.016269	42.603817	345.057577	907.858729	32.943636	317.770660	913.706422	31.458311	158.550322	1117.367744	40.817536	129.245132	983.000398	75.528793	282.248735	984.144032	74.919924	188.709766	1035.945654	450.560927	249.155208	1011.682749	448.096424	230.043858	
7	0.028000	997.625351	1332.917809	361.383259	1032.694459	1325.392365	72.598621	916.786253	1354.611874	224.929959	1136.494160	872.607827	361.151606	1086.434841	873.497903	59.528135	885.283887	936.999321	234.062999	1031.534791	833.954811	433.590680	1030.805111	793.806374	26.232885	1009.174347	467.914075	387.914926	1002.942324	447.166294	96.509963	1005.599141	405.439138	383.179903	970.839262	76.307163	363.908827	981.731415	403.359532	93.935080	974.782825	70.377216	111.191027	1116.032362	42.611428	345.058739	908.823788	33.314489	318.680018	913.721681	31.445496	158.558249	1117.358208	40.808730	129.245549	981.308401	75.269796	280.780256	984.140158	74.911423	188.713908	1035.917282	450.539887	249.173239	1011.673450	448.087573	230.048835	
8	0.032000	997.611225	1332.906246	361.396581	1032.703400	1325.395465	72.613984	916.797757	1354.618788	224.946246	1136.474729	872.604728	361.155361	1086.477280	873.510063	59.513606	885.263205	937.009990	234.054700	1031.512499	833.959937	433.588028	1030.806065	793.801188	26.236039	1009.168863	467.909217	387.916982	1002.924919	447.166294	96.511923	1005.598307	405.440837	383.181453	970.847785	76.307565	363.900721	981.722057	403.360307	93.940854	974.774778	70.376530	111.194104	1116.034746	42.614326	345.051706	909.057975	33.402830	318.911910	913.723826	31.441059	158.562198	1117.353201	40.812030	129.247949	980.881393	75.201951	280.404389	984.127402	74.911855	188.710451	1035.910964	450.542271	249.179333	1011.668682	448.088288	230.051339	
9	0.036000	997.602940	1332.892656	361.414254	1032.715440	1325.404167	72.631292	916.794717	1354.618192	224.962875	1136.466026	872.613132	361.161023	1086.486578	873.505890	59.512395	885.245979	937.021911	234.052747	1031.494141	833.968759	433.587849	1030.807734	793.794096	26.241342	1009.157300	467.915118	387.912273	1002.921104	447.174877	96.498266	1005.593181	405.439854	383.179367	970.851362	76.311678	363.896817	981.717348	403.359860	93.942925	974.766314	70.370048	111.198425	1116.020441	42.621262	345.048547	909.118950	33.422608	318.969309	913.708091	31.440765	158.561379	1117.344022	40.811878	129.248679	980.781019	75.189322	280.314654	984.117568	74.911237	188.706040	1035.990715	450.572252	249.145940	1011.657953	448.091984	230.057284	
10	0.040000	997.603178	1332.889915	361.423850	1032.736421	1325.408220	72.652474	916.814566	1354.618788	224.973768	1136.445880	872.612119	361.161441	1086.472154	873.502612	59.508935	885.227382	937.031865	234.058082	1031.458378	833.978832	433.590889	1030.802250	793.790936	26.252244	1009.160876	467.923224	387.907088	1002.906561	447.178513	96.493647	1005.576849	405.447006	383.174360	970.851600	76.319225	363.891065	981.704593	403.349817	93.940139	974.761248	70.370615	111.194678	1116.020679	42.623058	345.048994	909.131527	33.431772	318.982840	913.705111	31.436440	158.564568	1117.348194	40.823020	129.244387	980.761051	75.189590	280.295014	984.120131	74.922822	188.709319	1036.067486	450.602472	249.117032	1011.651993	448.090851	230.060011	
11	0.044000	997.607648	1332.883000	361.434996	1032.760382	1325.399876	72.666876	916.820049	1354.627490	224.986508	1136.422992	872.604966	361.160398	1086.424112	873.490214	59.532244	885.220647	937.037230	234.046608	1031.433344	833.986282	433.589011	1030.787826	793.785810	26.260138	1009.158611	467.919737	387.908489	1002.888203	447.180599	96.492119	1005.574822	405.445397	383.174539	970.856011	76.316521	363.884747	981.694698	403.351814	93.936846	974.762142	70.374236	111.195885	1116.030455	42.628042	345.050037	908.552885	33.215374	318.452150	913.716674	31.431463	158.571646	1117.356896	40.819772	129.237756	981.755495	75.346291	281.167328	984.120488	74.928030	188.708156	1036.065698	450.598866	249.118373	1011.646986	448.089063	230.060011	
12	0.048000	997.610092	1332.877159	361.450106	1032.780647	1325.394154	72.686344	916.828513	1354.625821	224.987134	1136.414886	872.607768	361.157268	1086.466312	873.516321	59.507437	885.221481	937.039614	234.045178	1031.440735	833.987832	433.593899	1030.781507	793.785870	26.261816	1009.153485	467.917889	387.915254	1002.874255	447.186053	96.497037	1005.586743	405.445784	383.181751	970.857978	76.320484	363.899589	981.685221	403.349102	93.933284	974.766612	70.375495	111.196980	1116.027832	42.623691	345.048249	907.828987	32.939032	317.777544	913.717508	31.436428	158.570945	1117.347717	40.815759	129.237413	982.995570	75.544253	282.263070	984.130859	74.932106	188.708633	1036.058068	450.598478	249.121845	1011.633158	448.085845	230.058417	
